<?xml version="1.0" encoding="utf-8" standalone="no"?>
<!DOCTYPE svg PUBLIC "-//W3C//DTD SVG 1.1//EN"
  "http://www.w3.org/Graphics/SVG/1.1/DTD/svg11.dtd">
<svg xmlns:xlink="http://www.w3.org/1999/xlink" width="720pt" height="432pt" viewBox="0 0 720 432" xmlns="http://www.w3.org/2000/svg" version="1.1">
 <metadata>
  <rdf:RDF xmlns:dc="http://purl.org/dc/elements/1.1/" xmlns:cc="http://creativecommons.org/ns#" xmlns:rdf="http://www.w3.org/1999/02/22-rdf-syntax-ns#">
   <cc:Work>
    <dc:type rdf:resource="http://purl.org/dc/dcmitype/StillImage"/>
    <dc:date>2026-07-22T12:17:54.798136</dc:date>
    <dc:format>image/svg+xml</dc:format>
    <dc:creator>
     <cc:Agent>
      <dc:title>Matplotlib v3.10.8, https://matplotlib.org/</dc:title>
     </cc:Agent>
    </dc:creator>
   </cc:Work>
  </rdf:RDF>
 </metadata>
 <defs>
  <style type="text/css">*{stroke-linejoin: round; stroke-linecap: butt}</style>
 </defs>
 <g id="figure_1">
  <g id="patch_1">
   <path d="M 0 432
L 720 432
L 720 0
L 0 0
z
" style="fill: #ffffff"/>
  </g>
  <g id="axes_1">
   <g id="patch_2">
    <path d="M 38.27 390.04
L 709.2 390.04
L 709.2 26.88
L 38.27 26.88
z
" style="fill: #ffffff"/>
   </g>
   <g id="matplotlib.axis_1">
    <g id="xtick_1">
     <g id="line2d_1">
      <path d="M 38.27 390.04
L 38.27 26.88
" clip-path="url(#pe280682c18)" style="fill: none; stroke: #b0b0b0; stroke-opacity: 0.25; stroke-width: 0.8; stroke-linecap: square"/>
     </g>
     <g id="line2d_2">
      <defs>
       <path id="m064ef1f868" d="M 0 0
L 0 3.5
" style="stroke: #000000; stroke-width: 0.8"/>
      </defs>
      <g>
       <use xlink:href="#m064ef1f868" x="38.27" y="390.04" style="stroke: #000000; stroke-width: 0.8"/>
      </g>
     </g>
     <g id="text_1">
      <!-- 0.00 -->
      <g transform="translate(27.137188 404.638438) scale(0.1 -0.1)">
       <defs>
        <path id="DejaVuSans-30" d="M 2034 4250
Q 1547 4250 1301 3770
Q 1056 3291 1056 2328
Q 1056 1369 1301 889
Q 1547 409 2034 409
Q 2525 409 2770 889
Q 3016 1369 3016 2328
Q 3016 3291 2770 3770
Q 2525 4250 2034 4250
z
M 2034 4750
Q 2819 4750 3233 4129
Q 3647 3509 3647 2328
Q 3647 1150 3233 529
Q 2819 -91 2034 -91
Q 1250 -91 836 529
Q 422 1150 422 2328
Q 422 3509 836 4129
Q 1250 4750 2034 4750
z
" transform="scale(0.015625)"/>
        <path id="DejaVuSans-2e" d="M 684 794
L 1344 794
L 1344 0
L 684 0
L 684 794
z
" transform="scale(0.015625)"/>
       </defs>
       <use xlink:href="#DejaVuSans-30"/>
       <use xlink:href="#DejaVuSans-2e" transform="translate(63.623047 0)"/>
       <use xlink:href="#DejaVuSans-30" transform="translate(95.410156 0)"/>
       <use xlink:href="#DejaVuSans-30" transform="translate(159.033203 0)"/>
      </g>
     </g>
    </g>
    <g id="xtick_2">
     <g id="line2d_3">
      <path d="M 169.326348 390.04
L 169.326348 26.88
" clip-path="url(#pe280682c18)" style="fill: none; stroke: #b0b0b0; stroke-opacity: 0.25; stroke-width: 0.8; stroke-linecap: square"/>
     </g>
     <g id="line2d_4">
      <g>
       <use xlink:href="#m064ef1f868" x="169.326348" y="390.04" style="stroke: #000000; stroke-width: 0.8"/>
      </g>
     </g>
     <g id="text_2">
      <!-- 0.05 -->
      <g transform="translate(158.193536 404.638438) scale(0.1 -0.1)">
       <defs>
        <path id="DejaVuSans-35" d="M 691 4666
L 3169 4666
L 3169 4134
L 1269 4134
L 1269 2991
Q 1406 3038 1543 3061
Q 1681 3084 1819 3084
Q 2600 3084 3056 2656
Q 3513 2228 3513 1497
Q 3513 744 3044 326
Q 2575 -91 1722 -91
Q 1428 -91 1123 -41
Q 819 9 494 109
L 494 744
Q 775 591 1075 516
Q 1375 441 1709 441
Q 2250 441 2565 725
Q 2881 1009 2881 1497
Q 2881 1984 2565 2268
Q 2250 2553 1709 2553
Q 1456 2553 1204 2497
Q 953 2441 691 2322
L 691 4666
z
" transform="scale(0.015625)"/>
       </defs>
       <use xlink:href="#DejaVuSans-30"/>
       <use xlink:href="#DejaVuSans-2e" transform="translate(63.623047 0)"/>
       <use xlink:href="#DejaVuSans-30" transform="translate(95.410156 0)"/>
       <use xlink:href="#DejaVuSans-35" transform="translate(159.033203 0)"/>
      </g>
     </g>
    </g>
    <g id="xtick_3">
     <g id="line2d_5">
      <path d="M 300.382696 390.04
L 300.382696 26.88
" clip-path="url(#pe280682c18)" style="fill: none; stroke: #b0b0b0; stroke-opacity: 0.25; stroke-width: 0.8; stroke-linecap: square"/>
     </g>
     <g id="line2d_6">
      <g>
       <use xlink:href="#m064ef1f868" x="300.382696" y="390.04" style="stroke: #000000; stroke-width: 0.8"/>
      </g>
     </g>
     <g id="text_3">
      <!-- 0.10 -->
      <g transform="translate(289.249884 404.638438) scale(0.1 -0.1)">
       <defs>
        <path id="DejaVuSans-31" d="M 794 531
L 1825 531
L 1825 4091
L 703 3866
L 703 4441
L 1819 4666
L 2450 4666
L 2450 531
L 3481 531
L 3481 0
L 794 0
L 794 531
z
" transform="scale(0.015625)"/>
       </defs>
       <use xlink:href="#DejaVuSans-30"/>
       <use xlink:href="#DejaVuSans-2e" transform="translate(63.623047 0)"/>
       <use xlink:href="#DejaVuSans-31" transform="translate(95.410156 0)"/>
       <use xlink:href="#DejaVuSans-30" transform="translate(159.033203 0)"/>
      </g>
     </g>
    </g>
    <g id="xtick_4">
     <g id="line2d_7">
      <path d="M 431.439045 390.04
L 431.439045 26.88
" clip-path="url(#pe280682c18)" style="fill: none; stroke: #b0b0b0; stroke-opacity: 0.25; stroke-width: 0.8; stroke-linecap: square"/>
     </g>
     <g id="line2d_8">
      <g>
       <use xlink:href="#m064ef1f868" x="431.439045" y="390.04" style="stroke: #000000; stroke-width: 0.8"/>
      </g>
     </g>
     <g id="text_4">
      <!-- 0.15 -->
      <g transform="translate(420.306232 404.638438) scale(0.1 -0.1)">
       <use xlink:href="#DejaVuSans-30"/>
       <use xlink:href="#DejaVuSans-2e" transform="translate(63.623047 0)"/>
       <use xlink:href="#DejaVuSans-31" transform="translate(95.410156 0)"/>
       <use xlink:href="#DejaVuSans-35" transform="translate(159.033203 0)"/>
      </g>
     </g>
    </g>
    <g id="xtick_5">
     <g id="line2d_9">
      <path d="M 562.495393 390.04
L 562.495393 26.88
" clip-path="url(#pe280682c18)" style="fill: none; stroke: #b0b0b0; stroke-opacity: 0.25; stroke-width: 0.8; stroke-linecap: square"/>
     </g>
     <g id="line2d_10">
      <g>
       <use xlink:href="#m064ef1f868" x="562.495393" y="390.04" style="stroke: #000000; stroke-width: 0.8"/>
      </g>
     </g>
     <g id="text_5">
      <!-- 0.20 -->
      <g transform="translate(551.36258 404.638438) scale(0.1 -0.1)">
       <defs>
        <path id="DejaVuSans-32" d="M 1228 531
L 3431 531
L 3431 0
L 469 0
L 469 531
Q 828 903 1448 1529
Q 2069 2156 2228 2338
Q 2531 2678 2651 2914
Q 2772 3150 2772 3378
Q 2772 3750 2511 3984
Q 2250 4219 1831 4219
Q 1534 4219 1204 4116
Q 875 4013 500 3803
L 500 4441
Q 881 4594 1212 4672
Q 1544 4750 1819 4750
Q 2544 4750 2975 4387
Q 3406 4025 3406 3419
Q 3406 3131 3298 2873
Q 3191 2616 2906 2266
Q 2828 2175 2409 1742
Q 1991 1309 1228 531
z
" transform="scale(0.015625)"/>
       </defs>
       <use xlink:href="#DejaVuSans-30"/>
       <use xlink:href="#DejaVuSans-2e" transform="translate(63.623047 0)"/>
       <use xlink:href="#DejaVuSans-32" transform="translate(95.410156 0)"/>
       <use xlink:href="#DejaVuSans-30" transform="translate(159.033203 0)"/>
      </g>
     </g>
    </g>
    <g id="xtick_6">
     <g id="line2d_11">
      <path d="M 693.551741 390.04
L 693.551741 26.88
" clip-path="url(#pe280682c18)" style="fill: none; stroke: #b0b0b0; stroke-opacity: 0.25; stroke-width: 0.8; stroke-linecap: square"/>
     </g>
     <g id="line2d_12">
      <g>
       <use xlink:href="#m064ef1f868" x="693.551741" y="390.04" style="stroke: #000000; stroke-width: 0.8"/>
      </g>
     </g>
     <g id="text_6">
      <!-- 0.25 -->
      <g transform="translate(682.418928 404.638438) scale(0.1 -0.1)">
       <use xlink:href="#DejaVuSans-30"/>
       <use xlink:href="#DejaVuSans-2e" transform="translate(63.623047 0)"/>
       <use xlink:href="#DejaVuSans-32" transform="translate(95.410156 0)"/>
       <use xlink:href="#DejaVuSans-35" transform="translate(159.033203 0)"/>
      </g>
     </g>
    </g>
    <g id="text_7">
     <!-- Seconds since first provider span -->
     <g transform="translate(290.770938 418.316562) scale(0.1 -0.1)">
      <defs>
       <path id="DejaVuSans-53" d="M 3425 4513
L 3425 3897
Q 3066 4069 2747 4153
Q 2428 4238 2131 4238
Q 1616 4238 1336 4038
Q 1056 3838 1056 3469
Q 1056 3159 1242 3001
Q 1428 2844 1947 2747
L 2328 2669
Q 3034 2534 3370 2195
Q 3706 1856 3706 1288
Q 3706 609 3251 259
Q 2797 -91 1919 -91
Q 1588 -91 1214 -16
Q 841 59 441 206
L 441 856
Q 825 641 1194 531
Q 1563 422 1919 422
Q 2459 422 2753 634
Q 3047 847 3047 1241
Q 3047 1584 2836 1778
Q 2625 1972 2144 2069
L 1759 2144
Q 1053 2284 737 2584
Q 422 2884 422 3419
Q 422 4038 858 4394
Q 1294 4750 2059 4750
Q 2388 4750 2728 4690
Q 3069 4631 3425 4513
z
" transform="scale(0.015625)"/>
       <path id="DejaVuSans-65" d="M 3597 1894
L 3597 1613
L 953 1613
Q 991 1019 1311 708
Q 1631 397 2203 397
Q 2534 397 2845 478
Q 3156 559 3463 722
L 3463 178
Q 3153 47 2828 -22
Q 2503 -91 2169 -91
Q 1331 -91 842 396
Q 353 884 353 1716
Q 353 2575 817 3079
Q 1281 3584 2069 3584
Q 2775 3584 3186 3129
Q 3597 2675 3597 1894
z
M 3022 2063
Q 3016 2534 2758 2815
Q 2500 3097 2075 3097
Q 1594 3097 1305 2825
Q 1016 2553 972 2059
L 3022 2063
z
" transform="scale(0.015625)"/>
       <path id="DejaVuSans-63" d="M 3122 3366
L 3122 2828
Q 2878 2963 2633 3030
Q 2388 3097 2138 3097
Q 1578 3097 1268 2742
Q 959 2388 959 1747
Q 959 1106 1268 751
Q 1578 397 2138 397
Q 2388 397 2633 464
Q 2878 531 3122 666
L 3122 134
Q 2881 22 2623 -34
Q 2366 -91 2075 -91
Q 1284 -91 818 406
Q 353 903 353 1747
Q 353 2603 823 3093
Q 1294 3584 2113 3584
Q 2378 3584 2631 3529
Q 2884 3475 3122 3366
z
" transform="scale(0.015625)"/>
       <path id="DejaVuSans-6f" d="M 1959 3097
Q 1497 3097 1228 2736
Q 959 2375 959 1747
Q 959 1119 1226 758
Q 1494 397 1959 397
Q 2419 397 2687 759
Q 2956 1122 2956 1747
Q 2956 2369 2687 2733
Q 2419 3097 1959 3097
z
M 1959 3584
Q 2709 3584 3137 3096
Q 3566 2609 3566 1747
Q 3566 888 3137 398
Q 2709 -91 1959 -91
Q 1206 -91 779 398
Q 353 888 353 1747
Q 353 2609 779 3096
Q 1206 3584 1959 3584
z
" transform="scale(0.015625)"/>
       <path id="DejaVuSans-6e" d="M 3513 2113
L 3513 0
L 2938 0
L 2938 2094
Q 2938 2591 2744 2837
Q 2550 3084 2163 3084
Q 1697 3084 1428 2787
Q 1159 2491 1159 1978
L 1159 0
L 581 0
L 581 3500
L 1159 3500
L 1159 2956
Q 1366 3272 1645 3428
Q 1925 3584 2291 3584
Q 2894 3584 3203 3211
Q 3513 2838 3513 2113
z
" transform="scale(0.015625)"/>
       <path id="DejaVuSans-64" d="M 2906 2969
L 2906 4863
L 3481 4863
L 3481 0
L 2906 0
L 2906 525
Q 2725 213 2448 61
Q 2172 -91 1784 -91
Q 1150 -91 751 415
Q 353 922 353 1747
Q 353 2572 751 3078
Q 1150 3584 1784 3584
Q 2172 3584 2448 3432
Q 2725 3281 2906 2969
z
M 947 1747
Q 947 1113 1208 752
Q 1469 391 1925 391
Q 2381 391 2643 752
Q 2906 1113 2906 1747
Q 2906 2381 2643 2742
Q 2381 3103 1925 3103
Q 1469 3103 1208 2742
Q 947 2381 947 1747
z
" transform="scale(0.015625)"/>
       <path id="DejaVuSans-73" d="M 2834 3397
L 2834 2853
Q 2591 2978 2328 3040
Q 2066 3103 1784 3103
Q 1356 3103 1142 2972
Q 928 2841 928 2578
Q 928 2378 1081 2264
Q 1234 2150 1697 2047
L 1894 2003
Q 2506 1872 2764 1633
Q 3022 1394 3022 966
Q 3022 478 2636 193
Q 2250 -91 1575 -91
Q 1294 -91 989 -36
Q 684 19 347 128
L 347 722
Q 666 556 975 473
Q 1284 391 1588 391
Q 1994 391 2212 530
Q 2431 669 2431 922
Q 2431 1156 2273 1281
Q 2116 1406 1581 1522
L 1381 1569
Q 847 1681 609 1914
Q 372 2147 372 2553
Q 372 3047 722 3315
Q 1072 3584 1716 3584
Q 2034 3584 2315 3537
Q 2597 3491 2834 3397
z
" transform="scale(0.015625)"/>
       <path id="DejaVuSans-20" transform="scale(0.015625)"/>
       <path id="DejaVuSans-69" d="M 603 3500
L 1178 3500
L 1178 0
L 603 0
L 603 3500
z
M 603 4863
L 1178 4863
L 1178 4134
L 603 4134
L 603 4863
z
" transform="scale(0.015625)"/>
       <path id="DejaVuSans-66" d="M 2375 4863
L 2375 4384
L 1825 4384
Q 1516 4384 1395 4259
Q 1275 4134 1275 3809
L 1275 3500
L 2222 3500
L 2222 3053
L 1275 3053
L 1275 0
L 697 0
L 697 3053
L 147 3053
L 147 3500
L 697 3500
L 697 3744
Q 697 4328 969 4595
Q 1241 4863 1831 4863
L 2375 4863
z
" transform="scale(0.015625)"/>
       <path id="DejaVuSans-72" d="M 2631 2963
Q 2534 3019 2420 3045
Q 2306 3072 2169 3072
Q 1681 3072 1420 2755
Q 1159 2438 1159 1844
L 1159 0
L 581 0
L 581 3500
L 1159 3500
L 1159 2956
Q 1341 3275 1631 3429
Q 1922 3584 2338 3584
Q 2397 3584 2469 3576
Q 2541 3569 2628 3553
L 2631 2963
z
" transform="scale(0.015625)"/>
       <path id="DejaVuSans-74" d="M 1172 4494
L 1172 3500
L 2356 3500
L 2356 3053
L 1172 3053
L 1172 1153
Q 1172 725 1289 603
Q 1406 481 1766 481
L 2356 481
L 2356 0
L 1766 0
Q 1100 0 847 248
Q 594 497 594 1153
L 594 3053
L 172 3053
L 172 3500
L 594 3500
L 594 4494
L 1172 4494
z
" transform="scale(0.015625)"/>
       <path id="DejaVuSans-70" d="M 1159 525
L 1159 -1331
L 581 -1331
L 581 3500
L 1159 3500
L 1159 2969
Q 1341 3281 1617 3432
Q 1894 3584 2278 3584
Q 2916 3584 3314 3078
Q 3713 2572 3713 1747
Q 3713 922 3314 415
Q 2916 -91 2278 -91
Q 1894 -91 1617 61
Q 1341 213 1159 525
z
M 3116 1747
Q 3116 2381 2855 2742
Q 2594 3103 2138 3103
Q 1681 3103 1420 2742
Q 1159 2381 1159 1747
Q 1159 1113 1420 752
Q 1681 391 2138 391
Q 2594 391 2855 752
Q 3116 1113 3116 1747
z
" transform="scale(0.015625)"/>
       <path id="DejaVuSans-76" d="M 191 3500
L 800 3500
L 1894 563
L 2988 3500
L 3597 3500
L 2284 0
L 1503 0
L 191 3500
z
" transform="scale(0.015625)"/>
       <path id="DejaVuSans-61" d="M 2194 1759
Q 1497 1759 1228 1600
Q 959 1441 959 1056
Q 959 750 1161 570
Q 1363 391 1709 391
Q 2188 391 2477 730
Q 2766 1069 2766 1631
L 2766 1759
L 2194 1759
z
M 3341 1997
L 3341 0
L 2766 0
L 2766 531
Q 2569 213 2275 61
Q 1981 -91 1556 -91
Q 1019 -91 701 211
Q 384 513 384 1019
Q 384 1609 779 1909
Q 1175 2209 1959 2209
L 2766 2209
L 2766 2266
Q 2766 2663 2505 2880
Q 2244 3097 1772 3097
Q 1472 3097 1187 3025
Q 903 2953 641 2809
L 641 3341
Q 956 3463 1253 3523
Q 1550 3584 1831 3584
Q 2591 3584 2966 3190
Q 3341 2797 3341 1997
z
" transform="scale(0.015625)"/>
      </defs>
      <use xlink:href="#DejaVuSans-53"/>
      <use xlink:href="#DejaVuSans-65" transform="translate(63.476562 0)"/>
      <use xlink:href="#DejaVuSans-63" transform="translate(125 0)"/>
      <use xlink:href="#DejaVuSans-6f" transform="translate(179.980469 0)"/>
      <use xlink:href="#DejaVuSans-6e" transform="translate(241.162109 0)"/>
      <use xlink:href="#DejaVuSans-64" transform="translate(304.541016 0)"/>
      <use xlink:href="#DejaVuSans-73" transform="translate(368.017578 0)"/>
      <use xlink:href="#DejaVuSans-20" transform="translate(420.117188 0)"/>
      <use xlink:href="#DejaVuSans-73" transform="translate(451.904297 0)"/>
      <use xlink:href="#DejaVuSans-69" transform="translate(504.003906 0)"/>
      <use xlink:href="#DejaVuSans-6e" transform="translate(531.787109 0)"/>
      <use xlink:href="#DejaVuSans-63" transform="translate(595.166016 0)"/>
      <use xlink:href="#DejaVuSans-65" transform="translate(650.146484 0)"/>
      <use xlink:href="#DejaVuSans-20" transform="translate(711.669922 0)"/>
      <use xlink:href="#DejaVuSans-66" transform="translate(743.457031 0)"/>
      <use xlink:href="#DejaVuSans-69" transform="translate(778.662109 0)"/>
      <use xlink:href="#DejaVuSans-72" transform="translate(806.445312 0)"/>
      <use xlink:href="#DejaVuSans-73" transform="translate(847.558594 0)"/>
      <use xlink:href="#DejaVuSans-74" transform="translate(899.658203 0)"/>
      <use xlink:href="#DejaVuSans-20" transform="translate(938.867188 0)"/>
      <use xlink:href="#DejaVuSans-70" transform="translate(970.654297 0)"/>
      <use xlink:href="#DejaVuSans-72" transform="translate(1034.130859 0)"/>
      <use xlink:href="#DejaVuSans-6f" transform="translate(1072.994141 0)"/>
      <use xlink:href="#DejaVuSans-76" transform="translate(1134.175781 0)"/>
      <use xlink:href="#DejaVuSans-69" transform="translate(1193.355469 0)"/>
      <use xlink:href="#DejaVuSans-64" transform="translate(1221.138672 0)"/>
      <use xlink:href="#DejaVuSans-65" transform="translate(1284.615234 0)"/>
      <use xlink:href="#DejaVuSans-72" transform="translate(1346.138672 0)"/>
      <use xlink:href="#DejaVuSans-20" transform="translate(1387.251953 0)"/>
      <use xlink:href="#DejaVuSans-73" transform="translate(1419.039062 0)"/>
      <use xlink:href="#DejaVuSans-70" transform="translate(1471.138672 0)"/>
      <use xlink:href="#DejaVuSans-61" transform="translate(1534.615234 0)"/>
      <use xlink:href="#DejaVuSans-6e" transform="translate(1595.894531 0)"/>
     </g>
    </g>
   </g>
   <g id="matplotlib.axis_2">
    <g id="ytick_1">
     <g id="line2d_13">
      <path d="M 38.27 373.532727
L 709.2 373.532727
" clip-path="url(#pe280682c18)" style="fill: none; stroke: #b0b0b0; stroke-opacity: 0.25; stroke-width: 0.8; stroke-linecap: square"/>
     </g>
     <g id="line2d_14">
      <defs>
       <path id="m937a819863" d="M 0 0
L -3.5 0
" style="stroke: #000000; stroke-width: 0.8"/>
      </defs>
      <g>
       <use xlink:href="#m937a819863" x="38.27" y="373.532727" style="stroke: #000000; stroke-width: 0.8"/>
      </g>
     </g>
     <g id="text_8">
      <!-- 0 -->
      <g transform="translate(24.9075 377.331946) scale(0.1 -0.1)">
       <use xlink:href="#DejaVuSans-30"/>
      </g>
     </g>
    </g>
    <g id="ytick_2">
     <g id="line2d_15">
      <path d="M 38.27 290.996364
L 709.2 290.996364
" clip-path="url(#pe280682c18)" style="fill: none; stroke: #b0b0b0; stroke-opacity: 0.25; stroke-width: 0.8; stroke-linecap: square"/>
     </g>
     <g id="line2d_16">
      <g>
       <use xlink:href="#m937a819863" x="38.27" y="290.996364" style="stroke: #000000; stroke-width: 0.8"/>
      </g>
     </g>
     <g id="text_9">
      <!-- 1 -->
      <g transform="translate(24.9075 294.795582) scale(0.1 -0.1)">
       <use xlink:href="#DejaVuSans-31"/>
      </g>
     </g>
    </g>
    <g id="ytick_3">
     <g id="line2d_17">
      <path d="M 38.27 208.46
L 709.2 208.46
" clip-path="url(#pe280682c18)" style="fill: none; stroke: #b0b0b0; stroke-opacity: 0.25; stroke-width: 0.8; stroke-linecap: square"/>
     </g>
     <g id="line2d_18">
      <g>
       <use xlink:href="#m937a819863" x="38.27" y="208.46" style="stroke: #000000; stroke-width: 0.8"/>
      </g>
     </g>
     <g id="text_10">
      <!-- 2 -->
      <g transform="translate(24.9075 212.259219) scale(0.1 -0.1)">
       <use xlink:href="#DejaVuSans-32"/>
      </g>
     </g>
    </g>
    <g id="ytick_4">
     <g id="line2d_19">
      <path d="M 38.27 125.923636
L 709.2 125.923636
" clip-path="url(#pe280682c18)" style="fill: none; stroke: #b0b0b0; stroke-opacity: 0.25; stroke-width: 0.8; stroke-linecap: square"/>
     </g>
     <g id="line2d_20">
      <g>
       <use xlink:href="#m937a819863" x="38.27" y="125.923636" style="stroke: #000000; stroke-width: 0.8"/>
      </g>
     </g>
     <g id="text_11">
      <!-- 3 -->
      <g transform="translate(24.9075 129.722855) scale(0.1 -0.1)">
       <defs>
        <path id="DejaVuSans-33" d="M 2597 2516
Q 3050 2419 3304 2112
Q 3559 1806 3559 1356
Q 3559 666 3084 287
Q 2609 -91 1734 -91
Q 1441 -91 1130 -33
Q 819 25 488 141
L 488 750
Q 750 597 1062 519
Q 1375 441 1716 441
Q 2309 441 2620 675
Q 2931 909 2931 1356
Q 2931 1769 2642 2001
Q 2353 2234 1838 2234
L 1294 2234
L 1294 2753
L 1863 2753
Q 2328 2753 2575 2939
Q 2822 3125 2822 3475
Q 2822 3834 2567 4026
Q 2313 4219 1838 4219
Q 1578 4219 1281 4162
Q 984 4106 628 3988
L 628 4550
Q 988 4650 1302 4700
Q 1616 4750 1894 4750
Q 2613 4750 3031 4423
Q 3450 4097 3450 3541
Q 3450 3153 3228 2886
Q 3006 2619 2597 2516
z
" transform="scale(0.015625)"/>
       </defs>
       <use xlink:href="#DejaVuSans-33"/>
      </g>
     </g>
    </g>
    <g id="ytick_5">
     <g id="line2d_21">
      <path d="M 38.27 43.387273
L 709.2 43.387273
" clip-path="url(#pe280682c18)" style="fill: none; stroke: #b0b0b0; stroke-opacity: 0.25; stroke-width: 0.8; stroke-linecap: square"/>
     </g>
     <g id="line2d_22">
      <g>
       <use xlink:href="#m937a819863" x="38.27" y="43.387273" style="stroke: #000000; stroke-width: 0.8"/>
      </g>
     </g>
     <g id="text_12">
      <!-- 4 -->
      <g transform="translate(24.9075 47.186491) scale(0.1 -0.1)">
       <defs>
        <path id="DejaVuSans-34" d="M 2419 4116
L 825 1625
L 2419 1625
L 2419 4116
z
M 2253 4666
L 3047 4666
L 3047 1625
L 3713 1625
L 3713 1100
L 3047 1100
L 3047 0
L 2419 0
L 2419 1100
L 313 1100
L 313 1709
L 2253 4666
z
" transform="scale(0.015625)"/>
       </defs>
       <use xlink:href="#DejaVuSans-34"/>
      </g>
     </g>
    </g>
    <g id="text_13">
     <!-- Active provider spans -->
     <g transform="translate(18.827813 262.552969) rotate(-90) scale(0.1 -0.1)">
      <defs>
       <path id="DejaVuSans-41" d="M 2188 4044
L 1331 1722
L 3047 1722
L 2188 4044
z
M 1831 4666
L 2547 4666
L 4325 0
L 3669 0
L 3244 1197
L 1141 1197
L 716 0
L 50 0
L 1831 4666
z
" transform="scale(0.015625)"/>
      </defs>
      <use xlink:href="#DejaVuSans-41"/>
      <use xlink:href="#DejaVuSans-63" transform="translate(66.658203 0)"/>
      <use xlink:href="#DejaVuSans-74" transform="translate(121.638672 0)"/>
      <use xlink:href="#DejaVuSans-69" transform="translate(160.847656 0)"/>
      <use xlink:href="#DejaVuSans-76" transform="translate(188.630859 0)"/>
      <use xlink:href="#DejaVuSans-65" transform="translate(247.810547 0)"/>
      <use xlink:href="#DejaVuSans-20" transform="translate(309.333984 0)"/>
      <use xlink:href="#DejaVuSans-70" transform="translate(341.121094 0)"/>
      <use xlink:href="#DejaVuSans-72" transform="translate(404.597656 0)"/>
      <use xlink:href="#DejaVuSans-6f" transform="translate(443.460938 0)"/>
      <use xlink:href="#DejaVuSans-76" transform="translate(504.642578 0)"/>
      <use xlink:href="#DejaVuSans-69" transform="translate(563.822266 0)"/>
      <use xlink:href="#DejaVuSans-64" transform="translate(591.605469 0)"/>
      <use xlink:href="#DejaVuSans-65" transform="translate(655.082031 0)"/>
      <use xlink:href="#DejaVuSans-72" transform="translate(716.605469 0)"/>
      <use xlink:href="#DejaVuSans-20" transform="translate(757.71875 0)"/>
      <use xlink:href="#DejaVuSans-73" transform="translate(789.505859 0)"/>
      <use xlink:href="#DejaVuSans-70" transform="translate(841.605469 0)"/>
      <use xlink:href="#DejaVuSans-61" transform="translate(905.082031 0)"/>
      <use xlink:href="#DejaVuSans-6e" transform="translate(966.361328 0)"/>
      <use xlink:href="#DejaVuSans-73" transform="translate(1029.740234 0)"/>
     </g>
    </g>
   </g>
   <g id="line2d_23">
    <path d="M 38.27 373.532727
L 38.27 373.532727
L 38.27 290.996364
L 45.658957 290.996364
L 45.658957 208.46
L 55.01638 208.46
L 55.01638 290.996364
L 56.198508 290.996364
L 56.198508 208.46
L 61.904702 208.46
L 61.904702 290.996364
L 65.846877 290.996364
L 65.846877 208.46
L 72.593658 208.46
L 72.593658 290.996364
L 77.951241 290.996364
L 77.951241 208.46
L 82.939246 208.46
L 82.939246 290.996364
L 94.679273 290.996364
L 94.679273 373.532727
L 113.200157 373.532727
L 113.200157 290.996364
L 121.359725 290.996364
L 121.359725 208.46
L 134.764168 208.46
L 134.764168 290.996364
L 139.30396 290.996364
L 139.30396 373.532727
L 145.209359 373.532727
L 145.209359 290.996364
L 151.659952 290.996364
L 151.659952 208.46
L 162.063205 208.46
L 162.063205 290.996364
L 163.620155 290.996364
L 163.620155 208.46
L 168.72611 208.46
L 168.72611 290.996364
L 179.755812 290.996364
L 179.755812 208.46
L 181.179084 208.46
L 181.179084 290.996364
L 196.300366 290.996364
L 196.300366 373.532727
L 252.361029 373.532727
L 252.361029 290.996364
L 264.205902 290.996364
L 264.205902 208.46
L 268.787632 208.46
L 268.787632 290.996364
L 276.457049 290.996364
L 276.457049 208.46
L 281.437191 208.46
L 281.437191 290.996364
L 292.978013 290.996364
L 292.978013 373.532727
L 303.250209 373.532727
L 303.250209 290.996364
L 321.115811 290.996364
L 321.115811 373.532727
L 608.218332 373.532727
L 608.218332 290.996364
L 624.907047 290.996364
L 624.907047 373.532727
" clip-path="url(#pe280682c18)" style="fill: none; stroke: #1f77b4; stroke-width: 1.5; stroke-linecap: square"/>
   </g>
   <g id="line2d_24">
    <path d="M 38.27 373.532727
L 320.001832 373.532727
L 320.001832 290.996364
L 320.250839 290.996364
L 320.250839 373.532727
L 335.917315 373.532727
L 335.917315 290.996364
L 336.14011 290.996364
L 336.14011 373.532727
L 388.195692 373.532727
L 388.195692 290.996364
L 388.594103 290.996364
L 388.594103 373.532727
L 419.457873 373.532727
L 419.457873 290.996364
L 419.79862 290.996364
L 419.79862 373.532727
L 431.410212 373.532727
L 431.410212 290.996364
L 431.761443 290.996364
L 431.761443 373.532727
L 442.82522 373.532727
L 442.82522 290.996364
L 443.152861 290.996364
L 443.152861 373.532727
L 458.921561 373.532727
L 458.921561 290.996364
L 459.202021 290.996364
L 459.202021 373.532727
L 484.008367 373.532727
L 484.008367 290.996364
L 484.267859 290.996364
L 484.267859 373.532727
L 493.931954 373.532727
L 493.931954 290.996364
L 494.141644 290.996364
L 494.141644 373.532727
L 510.602321 373.532727
L 510.602321 290.996364
L 510.80939 290.996364
L 510.80939 373.532727
L 522.373802 373.532727
L 522.373802 290.996364
L 522.688338 290.996364
L 522.688338 373.532727
L 539.117561 373.532727
L 539.117561 290.996364
L 539.484519 290.996364
L 539.484519 373.532727
L 550.364817 373.532727
L 550.364817 290.996364
L 550.632172 290.996364
L 550.632172 373.532727
L 566.545034 373.532727
L 566.545034 290.996364
L 567.132166 290.996364
L 567.132166 373.532727
L 595.676239 373.532727
L 595.676239 290.996364
L 595.893793 290.996364
L 595.893793 373.532727
L 665.794006 373.532727
L 665.794006 290.996364
L 666.357549 290.996364
L 666.357549 373.532727
" clip-path="url(#pe280682c18)" style="fill: none; stroke-dasharray: 1.5,2.475; stroke-dashoffset: 0; stroke: #1f77b4; stroke-width: 1.5"/>
   </g>
   <g id="line2d_25">
    <path d="M 38.27 373.532727
L 38.27 373.532727
L 38.27 290.996364
L 44.392953 290.996364
L 44.392953 208.46
L 52.235364 208.46
L 52.235364 125.923636
L 60.232423 125.923636
L 60.232423 208.46
L 63.456409 208.46
L 63.456409 125.923636
L 66.384208 125.923636
L 66.384208 208.46
L 74.011687 208.46
L 74.011687 290.996364
L 85.300881 290.996364
L 85.300881 373.532727
L 89.397703 373.532727
L 89.397703 290.996364
L 114.531689 290.996364
L 114.531689 373.532727
L 120.473784 373.532727
L 120.473784 290.996364
L 135.938433 290.996364
L 135.938433 208.46
L 142.997128 208.46
L 142.997128 290.996364
L 146.040256 290.996364
L 146.040256 208.46
L 158.060745 208.46
L 158.060745 290.996364
L 167.913561 290.996364
L 167.913561 373.532727
" clip-path="url(#pe280682c18)" style="fill: none; stroke: #ff7f0e; stroke-width: 1.5; stroke-linecap: square"/>
   </g>
   <g id="line2d_26">
    <path d="M 38.27 373.532727
L 481.990099 373.532727
L 481.990099 290.996364
L 483.054277 290.996364
L 483.054277 373.532727
L 496.896448 373.532727
L 496.896448 290.996364
L 497.625122 290.996364
L 497.625122 373.532727
L 535.914544 373.532727
L 535.914544 290.996364
L 536.921057 290.996364
L 536.921057 373.532727
L 555.79055 373.532727
L 555.79055 290.996364
L 556.870454 290.996364
L 556.870454 373.532727
L 601.940732 373.532727
L 601.940732 290.996364
L 603.025879 290.996364
L 603.025879 373.532727
L 616.595453 373.532727
L 616.595453 290.996364
L 617.337232 290.996364
L 617.337232 373.532727
L 640.159385 373.532727
L 640.159385 290.996364
L 640.848741 290.996364
L 640.848741 373.532727
L 675.785742 373.532727
L 675.785742 290.996364
L 677.250952 290.996364
L 677.250952 373.532727
" clip-path="url(#pe280682c18)" style="fill: none; stroke-dasharray: 1.5,2.475; stroke-dashoffset: 0; stroke: #ff7f0e; stroke-width: 1.5"/>
   </g>
   <g id="line2d_27">
    <path d="M 38.27 373.532727
L 38.27 373.532727
L 38.27 290.996364
L 48.50288 290.996364
L 48.50288 208.46
L 64.245368 208.46
L 64.245368 125.923636
L 74.116532 125.923636
L 74.116532 208.46
L 81.272209 208.46
L 81.272209 290.996364
L 99.106357 290.996364
L 99.106357 373.532727
L 104.545195 373.532727
L 104.545195 290.996364
L 140.37338 290.996364
L 140.37338 373.532727
" clip-path="url(#pe280682c18)" style="fill: none; stroke: #2ca02c; stroke-width: 1.5; stroke-linecap: square"/>
   </g>
   <g id="line2d_28">
    <path d="M 38.27 373.532727
L 156.878616 373.532727
L 156.878616 290.996364
L 158.155105 290.996364
L 158.155105 373.532727
L 208.949925 373.532727
L 208.949925 290.996364
L 213.466126 290.996364
L 213.466126 373.532727
L 220.066124 373.532727
L 220.066124 290.996364
L 221.339992 290.996364
L 221.339992 373.532727
L 253.752848 373.532727
L 253.752848 290.996364
L 255.451338 290.996364
L 255.451338 373.532727
" clip-path="url(#pe280682c18)" style="fill: none; stroke-dasharray: 1.5,2.475; stroke-dashoffset: 0; stroke: #2ca02c; stroke-width: 1.5"/>
   </g>
   <g id="line2d_29">
    <path d="M 38.27 373.532727
L 38.27 373.532727
L 38.27 290.996364
L 47.328615 290.996364
L 47.328615 208.46
L 93.698972 208.46
L 93.698972 290.996364
L 102.251709 290.996364
L 102.251709 373.532727
" clip-path="url(#pe280682c18)" style="fill: none; stroke: #d62728; stroke-width: 1.5; stroke-linecap: square"/>
   </g>
   <g id="line2d_30">
    <path d="M 38.27 373.532727
L 178.893462 373.532727
L 178.893462 290.996364
L 189.393696 290.996364
L 189.393696 373.532727
L 235.638239 373.532727
L 235.638239 290.996364
L 238.5241 290.996364
L 238.5241 373.532727
" clip-path="url(#pe280682c18)" style="fill: none; stroke-dasharray: 1.5,2.475; stroke-dashoffset: 0; stroke: #d62728; stroke-width: 1.5"/>
   </g>
   <g id="line2d_31">
    <path d="M 38.27 43.387273
L 709.2 43.387273
" clip-path="url(#pe280682c18)" style="fill: none; stroke-dasharray: 3.7,1.6; stroke-dashoffset: 0; stroke: #333333"/>
   </g>
   <g id="patch_3">
    <path d="M 38.27 390.04
L 38.27 26.88
" style="fill: none; stroke: #000000; stroke-width: 0.8; stroke-linejoin: miter; stroke-linecap: square"/>
   </g>
   <g id="patch_4">
    <path d="M 709.2 390.04
L 709.2 26.88
" style="fill: none; stroke: #000000; stroke-width: 0.8; stroke-linejoin: miter; stroke-linecap: square"/>
   </g>
   <g id="patch_5">
    <path d="M 38.27 390.04
L 709.2 390.04
" style="fill: none; stroke: #000000; stroke-width: 0.8; stroke-linejoin: miter; stroke-linecap: square"/>
   </g>
   <g id="patch_6">
    <path d="M 38.27 26.88
L 709.2 26.88
" style="fill: none; stroke: #000000; stroke-width: 0.8; stroke-linejoin: miter; stroke-linecap: square"/>
   </g>
   <g id="text_14">
    <!-- Workflow V3 fixture control — provider concurrency timeline -->
    <g transform="translate(192.319375 20.88) scale(0.12 -0.12)">
     <defs>
      <path id="DejaVuSans-57" d="M 213 4666
L 850 4666
L 1831 722
L 2809 4666
L 3519 4666
L 4500 722
L 5478 4666
L 6119 4666
L 4947 0
L 4153 0
L 3169 4050
L 2175 0
L 1381 0
L 213 4666
z
" transform="scale(0.015625)"/>
      <path id="DejaVuSans-6b" d="M 581 4863
L 1159 4863
L 1159 1991
L 2875 3500
L 3609 3500
L 1753 1863
L 3688 0
L 2938 0
L 1159 1709
L 1159 0
L 581 0
L 581 4863
z
" transform="scale(0.015625)"/>
      <path id="DejaVuSans-6c" d="M 603 4863
L 1178 4863
L 1178 0
L 603 0
L 603 4863
z
" transform="scale(0.015625)"/>
      <path id="DejaVuSans-77" d="M 269 3500
L 844 3500
L 1563 769
L 2278 3500
L 2956 3500
L 3675 769
L 4391 3500
L 4966 3500
L 4050 0
L 3372 0
L 2619 2869
L 1863 0
L 1184 0
L 269 3500
z
" transform="scale(0.015625)"/>
      <path id="DejaVuSans-56" d="M 1831 0
L 50 4666
L 709 4666
L 2188 738
L 3669 4666
L 4325 4666
L 2547 0
L 1831 0
z
" transform="scale(0.015625)"/>
      <path id="DejaVuSans-78" d="M 3513 3500
L 2247 1797
L 3578 0
L 2900 0
L 1881 1375
L 863 0
L 184 0
L 1544 1831
L 300 3500
L 978 3500
L 1906 2253
L 2834 3500
L 3513 3500
z
" transform="scale(0.015625)"/>
      <path id="DejaVuSans-75" d="M 544 1381
L 544 3500
L 1119 3500
L 1119 1403
Q 1119 906 1312 657
Q 1506 409 1894 409
Q 2359 409 2629 706
Q 2900 1003 2900 1516
L 2900 3500
L 3475 3500
L 3475 0
L 2900 0
L 2900 538
Q 2691 219 2414 64
Q 2138 -91 1772 -91
Q 1169 -91 856 284
Q 544 659 544 1381
z
M 1991 3584
L 1991 3584
z
" transform="scale(0.015625)"/>
      <path id="DejaVuSans-2014" d="M 313 1978
L 6088 1978
L 6088 1528
L 313 1528
L 313 1978
z
" transform="scale(0.015625)"/>
      <path id="DejaVuSans-79" d="M 2059 -325
Q 1816 -950 1584 -1140
Q 1353 -1331 966 -1331
L 506 -1331
L 506 -850
L 844 -850
Q 1081 -850 1212 -737
Q 1344 -625 1503 -206
L 1606 56
L 191 3500
L 800 3500
L 1894 763
L 2988 3500
L 3597 3500
L 2059 -325
z
" transform="scale(0.015625)"/>
      <path id="DejaVuSans-6d" d="M 3328 2828
Q 3544 3216 3844 3400
Q 4144 3584 4550 3584
Q 5097 3584 5394 3201
Q 5691 2819 5691 2113
L 5691 0
L 5113 0
L 5113 2094
Q 5113 2597 4934 2840
Q 4756 3084 4391 3084
Q 3944 3084 3684 2787
Q 3425 2491 3425 1978
L 3425 0
L 2847 0
L 2847 2094
Q 2847 2600 2669 2842
Q 2491 3084 2119 3084
Q 1678 3084 1418 2786
Q 1159 2488 1159 1978
L 1159 0
L 581 0
L 581 3500
L 1159 3500
L 1159 2956
Q 1356 3278 1631 3431
Q 1906 3584 2284 3584
Q 2666 3584 2933 3390
Q 3200 3197 3328 2828
z
" transform="scale(0.015625)"/>
     </defs>
     <use xlink:href="#DejaVuSans-57"/>
     <use xlink:href="#DejaVuSans-6f" transform="translate(93.001953 0)"/>
     <use xlink:href="#DejaVuSans-72" transform="translate(154.183594 0)"/>
     <use xlink:href="#DejaVuSans-6b" transform="translate(195.296875 0)"/>
     <use xlink:href="#DejaVuSans-66" transform="translate(253.207031 0)"/>
     <use xlink:href="#DejaVuSans-6c" transform="translate(288.412109 0)"/>
     <use xlink:href="#DejaVuSans-6f" transform="translate(316.195312 0)"/>
     <use xlink:href="#DejaVuSans-77" transform="translate(377.376953 0)"/>
     <use xlink:href="#DejaVuSans-20" transform="translate(459.164062 0)"/>
     <use xlink:href="#DejaVuSans-56" transform="translate(490.951172 0)"/>
     <use xlink:href="#DejaVuSans-33" transform="translate(559.359375 0)"/>
     <use xlink:href="#DejaVuSans-20" transform="translate(622.982422 0)"/>
     <use xlink:href="#DejaVuSans-66" transform="translate(654.769531 0)"/>
     <use xlink:href="#DejaVuSans-69" transform="translate(689.974609 0)"/>
     <use xlink:href="#DejaVuSans-78" transform="translate(717.757812 0)"/>
     <use xlink:href="#DejaVuSans-74" transform="translate(776.9375 0)"/>
     <use xlink:href="#DejaVuSans-75" transform="translate(816.146484 0)"/>
     <use xlink:href="#DejaVuSans-72" transform="translate(879.525391 0)"/>
     <use xlink:href="#DejaVuSans-65" transform="translate(918.388672 0)"/>
     <use xlink:href="#DejaVuSans-20" transform="translate(979.912109 0)"/>
     <use xlink:href="#DejaVuSans-63" transform="translate(1011.699219 0)"/>
     <use xlink:href="#DejaVuSans-6f" transform="translate(1066.679688 0)"/>
     <use xlink:href="#DejaVuSans-6e" transform="translate(1127.861328 0)"/>
     <use xlink:href="#DejaVuSans-74" transform="translate(1191.240234 0)"/>
     <use xlink:href="#DejaVuSans-72" transform="translate(1230.449219 0)"/>
     <use xlink:href="#DejaVuSans-6f" transform="translate(1269.3125 0)"/>
     <use xlink:href="#DejaVuSans-6c" transform="translate(1330.494141 0)"/>
     <use xlink:href="#DejaVuSans-20" transform="translate(1358.277344 0)"/>
     <use xlink:href="#DejaVuSans-2014" transform="translate(1390.064453 0)"/>
     <use xlink:href="#DejaVuSans-20" transform="translate(1490.064453 0)"/>
     <use xlink:href="#DejaVuSans-70" transform="translate(1521.851562 0)"/>
     <use xlink:href="#DejaVuSans-72" transform="translate(1585.328125 0)"/>
     <use xlink:href="#DejaVuSans-6f" transform="translate(1624.191406 0)"/>
     <use xlink:href="#DejaVuSans-76" transform="translate(1685.373047 0)"/>
     <use xlink:href="#DejaVuSans-69" transform="translate(1744.552734 0)"/>
     <use xlink:href="#DejaVuSans-64" transform="translate(1772.335938 0)"/>
     <use xlink:href="#DejaVuSans-65" transform="translate(1835.8125 0)"/>
     <use xlink:href="#DejaVuSans-72" transform="translate(1897.335938 0)"/>
     <use xlink:href="#DejaVuSans-20" transform="translate(1938.449219 0)"/>
     <use xlink:href="#DejaVuSans-63" transform="translate(1970.236328 0)"/>
     <use xlink:href="#DejaVuSans-6f" transform="translate(2025.216797 0)"/>
     <use xlink:href="#DejaVuSans-6e" transform="translate(2086.398438 0)"/>
     <use xlink:href="#DejaVuSans-63" transform="translate(2149.777344 0)"/>
     <use xlink:href="#DejaVuSans-75" transform="translate(2204.757812 0)"/>
     <use xlink:href="#DejaVuSans-72" transform="translate(2268.136719 0)"/>
     <use xlink:href="#DejaVuSans-72" transform="translate(2307.5 0)"/>
     <use xlink:href="#DejaVuSans-65" transform="translate(2346.363281 0)"/>
     <use xlink:href="#DejaVuSans-6e" transform="translate(2407.886719 0)"/>
     <use xlink:href="#DejaVuSans-63" transform="translate(2471.265625 0)"/>
     <use xlink:href="#DejaVuSans-79" transform="translate(2526.246094 0)"/>
     <use xlink:href="#DejaVuSans-20" transform="translate(2585.425781 0)"/>
     <use xlink:href="#DejaVuSans-74" transform="translate(2617.212891 0)"/>
     <use xlink:href="#DejaVuSans-69" transform="translate(2656.421875 0)"/>
     <use xlink:href="#DejaVuSans-6d" transform="translate(2684.205078 0)"/>
     <use xlink:href="#DejaVuSans-65" transform="translate(2781.617188 0)"/>
     <use xlink:href="#DejaVuSans-6c" transform="translate(2843.140625 0)"/>
     <use xlink:href="#DejaVuSans-69" transform="translate(2870.923828 0)"/>
     <use xlink:href="#DejaVuSans-6e" transform="translate(2898.707031 0)"/>
     <use xlink:href="#DejaVuSans-65" transform="translate(2962.085938 0)"/>
    </g>
   </g>
   <g id="legend_1">
    <g id="patch_7">
     <path d="M 399.751875 242.835781
L 702.9 242.835781
Q 704.7 242.835781 704.7 241.035781
L 704.7 175.884219
Q 704.7 174.084219 702.9 174.084219
L 399.751875 174.084219
Q 397.951875 174.084219 397.951875 175.884219
L 397.951875 241.035781
Q 397.951875 242.835781 399.751875 242.835781
z
" style="fill: #ffffff; opacity: 0.8; stroke: #cccccc; stroke-linejoin: miter"/>
    </g>
    <g id="line2d_32">
     <path d="M 401.551875 181.372812
L 410.551875 181.372812
L 419.551875 181.372812
" style="fill: none; stroke: #1f77b4; stroke-width: 1.5; stroke-linecap: square"/>
    </g>
    <g id="text_15">
     <!-- batch=1 generation -->
     <g transform="translate(426.751875 184.522812) scale(0.09 -0.09)">
      <defs>
       <path id="DejaVuSans-62" d="M 3116 1747
Q 3116 2381 2855 2742
Q 2594 3103 2138 3103
Q 1681 3103 1420 2742
Q 1159 2381 1159 1747
Q 1159 1113 1420 752
Q 1681 391 2138 391
Q 2594 391 2855 752
Q 3116 1113 3116 1747
z
M 1159 2969
Q 1341 3281 1617 3432
Q 1894 3584 2278 3584
Q 2916 3584 3314 3078
Q 3713 2572 3713 1747
Q 3713 922 3314 415
Q 2916 -91 2278 -91
Q 1894 -91 1617 61
Q 1341 213 1159 525
L 1159 0
L 581 0
L 581 4863
L 1159 4863
L 1159 2969
z
" transform="scale(0.015625)"/>
       <path id="DejaVuSans-68" d="M 3513 2113
L 3513 0
L 2938 0
L 2938 2094
Q 2938 2591 2744 2837
Q 2550 3084 2163 3084
Q 1697 3084 1428 2787
Q 1159 2491 1159 1978
L 1159 0
L 581 0
L 581 4863
L 1159 4863
L 1159 2956
Q 1366 3272 1645 3428
Q 1925 3584 2291 3584
Q 2894 3584 3203 3211
Q 3513 2838 3513 2113
z
" transform="scale(0.015625)"/>
       <path id="DejaVuSans-3d" d="M 678 2906
L 4684 2906
L 4684 2381
L 678 2381
L 678 2906
z
M 678 1631
L 4684 1631
L 4684 1100
L 678 1100
L 678 1631
z
" transform="scale(0.015625)"/>
       <path id="DejaVuSans-67" d="M 2906 1791
Q 2906 2416 2648 2759
Q 2391 3103 1925 3103
Q 1463 3103 1205 2759
Q 947 2416 947 1791
Q 947 1169 1205 825
Q 1463 481 1925 481
Q 2391 481 2648 825
Q 2906 1169 2906 1791
z
M 3481 434
Q 3481 -459 3084 -895
Q 2688 -1331 1869 -1331
Q 1566 -1331 1297 -1286
Q 1028 -1241 775 -1147
L 775 -588
Q 1028 -725 1275 -790
Q 1522 -856 1778 -856
Q 2344 -856 2625 -561
Q 2906 -266 2906 331
L 2906 616
Q 2728 306 2450 153
Q 2172 0 1784 0
Q 1141 0 747 490
Q 353 981 353 1791
Q 353 2603 747 3093
Q 1141 3584 1784 3584
Q 2172 3584 2450 3431
Q 2728 3278 2906 2969
L 2906 3500
L 3481 3500
L 3481 434
z
" transform="scale(0.015625)"/>
      </defs>
      <use xlink:href="#DejaVuSans-62"/>
      <use xlink:href="#DejaVuSans-61" transform="translate(63.476562 0)"/>
      <use xlink:href="#DejaVuSans-74" transform="translate(124.755859 0)"/>
      <use xlink:href="#DejaVuSans-63" transform="translate(163.964844 0)"/>
      <use xlink:href="#DejaVuSans-68" transform="translate(218.945312 0)"/>
      <use xlink:href="#DejaVuSans-3d" transform="translate(282.324219 0)"/>
      <use xlink:href="#DejaVuSans-31" transform="translate(366.113281 0)"/>
      <use xlink:href="#DejaVuSans-20" transform="translate(429.736328 0)"/>
      <use xlink:href="#DejaVuSans-67" transform="translate(461.523438 0)"/>
      <use xlink:href="#DejaVuSans-65" transform="translate(525 0)"/>
      <use xlink:href="#DejaVuSans-6e" transform="translate(586.523438 0)"/>
      <use xlink:href="#DejaVuSans-65" transform="translate(649.902344 0)"/>
      <use xlink:href="#DejaVuSans-72" transform="translate(711.425781 0)"/>
      <use xlink:href="#DejaVuSans-61" transform="translate(752.539062 0)"/>
      <use xlink:href="#DejaVuSans-74" transform="translate(813.818359 0)"/>
      <use xlink:href="#DejaVuSans-69" transform="translate(853.027344 0)"/>
      <use xlink:href="#DejaVuSans-6f" transform="translate(880.810547 0)"/>
      <use xlink:href="#DejaVuSans-6e" transform="translate(941.992188 0)"/>
     </g>
    </g>
    <g id="line2d_33">
     <path d="M 401.551875 194.583125
L 410.551875 194.583125
L 419.551875 194.583125
" style="fill: none; stroke-dasharray: 1.5,2.475; stroke-dashoffset: 0; stroke: #1f77b4; stroke-width: 1.5"/>
    </g>
    <g id="text_16">
     <!-- batch=1 embedding -->
     <g transform="translate(426.751875 197.733125) scale(0.09 -0.09)">
      <use xlink:href="#DejaVuSans-62"/>
      <use xlink:href="#DejaVuSans-61" transform="translate(63.476562 0)"/>
      <use xlink:href="#DejaVuSans-74" transform="translate(124.755859 0)"/>
      <use xlink:href="#DejaVuSans-63" transform="translate(163.964844 0)"/>
      <use xlink:href="#DejaVuSans-68" transform="translate(218.945312 0)"/>
      <use xlink:href="#DejaVuSans-3d" transform="translate(282.324219 0)"/>
      <use xlink:href="#DejaVuSans-31" transform="translate(366.113281 0)"/>
      <use xlink:href="#DejaVuSans-20" transform="translate(429.736328 0)"/>
      <use xlink:href="#DejaVuSans-65" transform="translate(461.523438 0)"/>
      <use xlink:href="#DejaVuSans-6d" transform="translate(523.046875 0)"/>
      <use xlink:href="#DejaVuSans-62" transform="translate(620.458984 0)"/>
      <use xlink:href="#DejaVuSans-65" transform="translate(683.935547 0)"/>
      <use xlink:href="#DejaVuSans-64" transform="translate(745.458984 0)"/>
      <use xlink:href="#DejaVuSans-64" transform="translate(808.935547 0)"/>
      <use xlink:href="#DejaVuSans-69" transform="translate(872.412109 0)"/>
      <use xlink:href="#DejaVuSans-6e" transform="translate(900.195312 0)"/>
      <use xlink:href="#DejaVuSans-67" transform="translate(963.574219 0)"/>
     </g>
    </g>
    <g id="line2d_34">
     <path d="M 401.551875 207.793437
L 410.551875 207.793437
L 419.551875 207.793437
" style="fill: none; stroke: #ff7f0e; stroke-width: 1.5; stroke-linecap: square"/>
    </g>
    <g id="text_17">
     <!-- batch=2 generation -->
     <g transform="translate(426.751875 210.943437) scale(0.09 -0.09)">
      <use xlink:href="#DejaVuSans-62"/>
      <use xlink:href="#DejaVuSans-61" transform="translate(63.476562 0)"/>
      <use xlink:href="#DejaVuSans-74" transform="translate(124.755859 0)"/>
      <use xlink:href="#DejaVuSans-63" transform="translate(163.964844 0)"/>
      <use xlink:href="#DejaVuSans-68" transform="translate(218.945312 0)"/>
      <use xlink:href="#DejaVuSans-3d" transform="translate(282.324219 0)"/>
      <use xlink:href="#DejaVuSans-32" transform="translate(366.113281 0)"/>
      <use xlink:href="#DejaVuSans-20" transform="translate(429.736328 0)"/>
      <use xlink:href="#DejaVuSans-67" transform="translate(461.523438 0)"/>
      <use xlink:href="#DejaVuSans-65" transform="translate(525 0)"/>
      <use xlink:href="#DejaVuSans-6e" transform="translate(586.523438 0)"/>
      <use xlink:href="#DejaVuSans-65" transform="translate(649.902344 0)"/>
      <use xlink:href="#DejaVuSans-72" transform="translate(711.425781 0)"/>
      <use xlink:href="#DejaVuSans-61" transform="translate(752.539062 0)"/>
      <use xlink:href="#DejaVuSans-74" transform="translate(813.818359 0)"/>
      <use xlink:href="#DejaVuSans-69" transform="translate(853.027344 0)"/>
      <use xlink:href="#DejaVuSans-6f" transform="translate(880.810547 0)"/>
      <use xlink:href="#DejaVuSans-6e" transform="translate(941.992188 0)"/>
     </g>
    </g>
    <g id="line2d_35">
     <path d="M 401.551875 221.00375
L 410.551875 221.00375
L 419.551875 221.00375
" style="fill: none; stroke-dasharray: 1.5,2.475; stroke-dashoffset: 0; stroke: #ff7f0e; stroke-width: 1.5"/>
    </g>
    <g id="text_18">
     <!-- batch=2 embedding -->
     <g transform="translate(426.751875 224.15375) scale(0.09 -0.09)">
      <use xlink:href="#DejaVuSans-62"/>
      <use xlink:href="#DejaVuSans-61" transform="translate(63.476562 0)"/>
      <use xlink:href="#DejaVuSans-74" transform="translate(124.755859 0)"/>
      <use xlink:href="#DejaVuSans-63" transform="translate(163.964844 0)"/>
      <use xlink:href="#DejaVuSans-68" transform="translate(218.945312 0)"/>
      <use xlink:href="#DejaVuSans-3d" transform="translate(282.324219 0)"/>
      <use xlink:href="#DejaVuSans-32" transform="translate(366.113281 0)"/>
      <use xlink:href="#DejaVuSans-20" transform="translate(429.736328 0)"/>
      <use xlink:href="#DejaVuSans-65" transform="translate(461.523438 0)"/>
      <use xlink:href="#DejaVuSans-6d" transform="translate(523.046875 0)"/>
      <use xlink:href="#DejaVuSans-62" transform="translate(620.458984 0)"/>
      <use xlink:href="#DejaVuSans-65" transform="translate(683.935547 0)"/>
      <use xlink:href="#DejaVuSans-64" transform="translate(745.458984 0)"/>
      <use xlink:href="#DejaVuSans-64" transform="translate(808.935547 0)"/>
      <use xlink:href="#DejaVuSans-69" transform="translate(872.412109 0)"/>
      <use xlink:href="#DejaVuSans-6e" transform="translate(900.195312 0)"/>
      <use xlink:href="#DejaVuSans-67" transform="translate(963.574219 0)"/>
     </g>
    </g>
    <g id="line2d_36">
     <path d="M 401.551875 234.214062
L 410.551875 234.214062
L 419.551875 234.214062
" style="fill: none; stroke: #2ca02c; stroke-width: 1.5; stroke-linecap: square"/>
    </g>
    <g id="text_19">
     <!-- batch=4 generation -->
     <g transform="translate(426.751875 237.364062) scale(0.09 -0.09)">
      <use xlink:href="#DejaVuSans-62"/>
      <use xlink:href="#DejaVuSans-61" transform="translate(63.476562 0)"/>
      <use xlink:href="#DejaVuSans-74" transform="translate(124.755859 0)"/>
      <use xlink:href="#DejaVuSans-63" transform="translate(163.964844 0)"/>
      <use xlink:href="#DejaVuSans-68" transform="translate(218.945312 0)"/>
      <use xlink:href="#DejaVuSans-3d" transform="translate(282.324219 0)"/>
      <use xlink:href="#DejaVuSans-34" transform="translate(366.113281 0)"/>
      <use xlink:href="#DejaVuSans-20" transform="translate(429.736328 0)"/>
      <use xlink:href="#DejaVuSans-67" transform="translate(461.523438 0)"/>
      <use xlink:href="#DejaVuSans-65" transform="translate(525 0)"/>
      <use xlink:href="#DejaVuSans-6e" transform="translate(586.523438 0)"/>
      <use xlink:href="#DejaVuSans-65" transform="translate(649.902344 0)"/>
      <use xlink:href="#DejaVuSans-72" transform="translate(711.425781 0)"/>
      <use xlink:href="#DejaVuSans-61" transform="translate(752.539062 0)"/>
      <use xlink:href="#DejaVuSans-74" transform="translate(813.818359 0)"/>
      <use xlink:href="#DejaVuSans-69" transform="translate(853.027344 0)"/>
      <use xlink:href="#DejaVuSans-6f" transform="translate(880.810547 0)"/>
      <use xlink:href="#DejaVuSans-6e" transform="translate(941.992188 0)"/>
     </g>
    </g>
    <g id="line2d_37">
     <path d="M 537.190313 181.372812
L 546.190313 181.372812
L 555.190313 181.372812
" style="fill: none; stroke-dasharray: 1.5,2.475; stroke-dashoffset: 0; stroke: #2ca02c; stroke-width: 1.5"/>
    </g>
    <g id="text_20">
     <!-- batch=4 embedding -->
     <g transform="translate(562.390313 184.522812) scale(0.09 -0.09)">
      <use xlink:href="#DejaVuSans-62"/>
      <use xlink:href="#DejaVuSans-61" transform="translate(63.476562 0)"/>
      <use xlink:href="#DejaVuSans-74" transform="translate(124.755859 0)"/>
      <use xlink:href="#DejaVuSans-63" transform="translate(163.964844 0)"/>
      <use xlink:href="#DejaVuSans-68" transform="translate(218.945312 0)"/>
      <use xlink:href="#DejaVuSans-3d" transform="translate(282.324219 0)"/>
      <use xlink:href="#DejaVuSans-34" transform="translate(366.113281 0)"/>
      <use xlink:href="#DejaVuSans-20" transform="translate(429.736328 0)"/>
      <use xlink:href="#DejaVuSans-65" transform="translate(461.523438 0)"/>
      <use xlink:href="#DejaVuSans-6d" transform="translate(523.046875 0)"/>
      <use xlink:href="#DejaVuSans-62" transform="translate(620.458984 0)"/>
      <use xlink:href="#DejaVuSans-65" transform="translate(683.935547 0)"/>
      <use xlink:href="#DejaVuSans-64" transform="translate(745.458984 0)"/>
      <use xlink:href="#DejaVuSans-64" transform="translate(808.935547 0)"/>
      <use xlink:href="#DejaVuSans-69" transform="translate(872.412109 0)"/>
      <use xlink:href="#DejaVuSans-6e" transform="translate(900.195312 0)"/>
      <use xlink:href="#DejaVuSans-67" transform="translate(963.574219 0)"/>
     </g>
    </g>
    <g id="line2d_38">
     <path d="M 537.190313 194.583125
L 546.190313 194.583125
L 555.190313 194.583125
" style="fill: none; stroke: #d62728; stroke-width: 1.5; stroke-linecap: square"/>
    </g>
    <g id="text_21">
     <!-- batch=8 generation -->
     <g transform="translate(562.390313 197.733125) scale(0.09 -0.09)">
      <defs>
       <path id="DejaVuSans-38" d="M 2034 2216
Q 1584 2216 1326 1975
Q 1069 1734 1069 1313
Q 1069 891 1326 650
Q 1584 409 2034 409
Q 2484 409 2743 651
Q 3003 894 3003 1313
Q 3003 1734 2745 1975
Q 2488 2216 2034 2216
z
M 1403 2484
Q 997 2584 770 2862
Q 544 3141 544 3541
Q 544 4100 942 4425
Q 1341 4750 2034 4750
Q 2731 4750 3128 4425
Q 3525 4100 3525 3541
Q 3525 3141 3298 2862
Q 3072 2584 2669 2484
Q 3125 2378 3379 2068
Q 3634 1759 3634 1313
Q 3634 634 3220 271
Q 2806 -91 2034 -91
Q 1263 -91 848 271
Q 434 634 434 1313
Q 434 1759 690 2068
Q 947 2378 1403 2484
z
M 1172 3481
Q 1172 3119 1398 2916
Q 1625 2713 2034 2713
Q 2441 2713 2670 2916
Q 2900 3119 2900 3481
Q 2900 3844 2670 4047
Q 2441 4250 2034 4250
Q 1625 4250 1398 4047
Q 1172 3844 1172 3481
z
" transform="scale(0.015625)"/>
      </defs>
      <use xlink:href="#DejaVuSans-62"/>
      <use xlink:href="#DejaVuSans-61" transform="translate(63.476562 0)"/>
      <use xlink:href="#DejaVuSans-74" transform="translate(124.755859 0)"/>
      <use xlink:href="#DejaVuSans-63" transform="translate(163.964844 0)"/>
      <use xlink:href="#DejaVuSans-68" transform="translate(218.945312 0)"/>
      <use xlink:href="#DejaVuSans-3d" transform="translate(282.324219 0)"/>
      <use xlink:href="#DejaVuSans-38" transform="translate(366.113281 0)"/>
      <use xlink:href="#DejaVuSans-20" transform="translate(429.736328 0)"/>
      <use xlink:href="#DejaVuSans-67" transform="translate(461.523438 0)"/>
      <use xlink:href="#DejaVuSans-65" transform="translate(525 0)"/>
      <use xlink:href="#DejaVuSans-6e" transform="translate(586.523438 0)"/>
      <use xlink:href="#DejaVuSans-65" transform="translate(649.902344 0)"/>
      <use xlink:href="#DejaVuSans-72" transform="translate(711.425781 0)"/>
      <use xlink:href="#DejaVuSans-61" transform="translate(752.539062 0)"/>
      <use xlink:href="#DejaVuSans-74" transform="translate(813.818359 0)"/>
      <use xlink:href="#DejaVuSans-69" transform="translate(853.027344 0)"/>
      <use xlink:href="#DejaVuSans-6f" transform="translate(880.810547 0)"/>
      <use xlink:href="#DejaVuSans-6e" transform="translate(941.992188 0)"/>
     </g>
    </g>
    <g id="line2d_39">
     <path d="M 537.190313 207.793437
L 546.190313 207.793437
L 555.190313 207.793437
" style="fill: none; stroke-dasharray: 1.5,2.475; stroke-dashoffset: 0; stroke: #d62728; stroke-width: 1.5"/>
    </g>
    <g id="text_22">
     <!-- batch=8 embedding -->
     <g transform="translate(562.390313 210.943437) scale(0.09 -0.09)">
      <use xlink:href="#DejaVuSans-62"/>
      <use xlink:href="#DejaVuSans-61" transform="translate(63.476562 0)"/>
      <use xlink:href="#DejaVuSans-74" transform="translate(124.755859 0)"/>
      <use xlink:href="#DejaVuSans-63" transform="translate(163.964844 0)"/>
      <use xlink:href="#DejaVuSans-68" transform="translate(218.945312 0)"/>
      <use xlink:href="#DejaVuSans-3d" transform="translate(282.324219 0)"/>
      <use xlink:href="#DejaVuSans-38" transform="translate(366.113281 0)"/>
      <use xlink:href="#DejaVuSans-20" transform="translate(429.736328 0)"/>
      <use xlink:href="#DejaVuSans-65" transform="translate(461.523438 0)"/>
      <use xlink:href="#DejaVuSans-6d" transform="translate(523.046875 0)"/>
      <use xlink:href="#DejaVuSans-62" transform="translate(620.458984 0)"/>
      <use xlink:href="#DejaVuSans-65" transform="translate(683.935547 0)"/>
      <use xlink:href="#DejaVuSans-64" transform="translate(745.458984 0)"/>
      <use xlink:href="#DejaVuSans-64" transform="translate(808.935547 0)"/>
      <use xlink:href="#DejaVuSans-69" transform="translate(872.412109 0)"/>
      <use xlink:href="#DejaVuSans-6e" transform="translate(900.195312 0)"/>
      <use xlink:href="#DejaVuSans-67" transform="translate(963.574219 0)"/>
     </g>
    </g>
    <g id="line2d_40">
     <path d="M 537.190313 221.00375
L 546.190313 221.00375
L 555.190313 221.00375
" style="fill: none; stroke-dasharray: 3.7,1.6; stroke-dashoffset: 0; stroke: #333333"/>
    </g>
    <g id="text_23">
     <!-- Umans generation hard cap=4 -->
     <g transform="translate(562.390313 224.15375) scale(0.09 -0.09)">
      <defs>
       <path id="DejaVuSans-55" d="M 556 4666
L 1191 4666
L 1191 1831
Q 1191 1081 1462 751
Q 1734 422 2344 422
Q 2950 422 3222 751
Q 3494 1081 3494 1831
L 3494 4666
L 4128 4666
L 4128 1753
Q 4128 841 3676 375
Q 3225 -91 2344 -91
Q 1459 -91 1007 375
Q 556 841 556 1753
L 556 4666
z
" transform="scale(0.015625)"/>
      </defs>
      <use xlink:href="#DejaVuSans-55"/>
      <use xlink:href="#DejaVuSans-6d" transform="translate(73.193359 0)"/>
      <use xlink:href="#DejaVuSans-61" transform="translate(170.605469 0)"/>
      <use xlink:href="#DejaVuSans-6e" transform="translate(231.884766 0)"/>
      <use xlink:href="#DejaVuSans-73" transform="translate(295.263672 0)"/>
      <use xlink:href="#DejaVuSans-20" transform="translate(347.363281 0)"/>
      <use xlink:href="#DejaVuSans-67" transform="translate(379.150391 0)"/>
      <use xlink:href="#DejaVuSans-65" transform="translate(442.626953 0)"/>
      <use xlink:href="#DejaVuSans-6e" transform="translate(504.150391 0)"/>
      <use xlink:href="#DejaVuSans-65" transform="translate(567.529297 0)"/>
      <use xlink:href="#DejaVuSans-72" transform="translate(629.052734 0)"/>
      <use xlink:href="#DejaVuSans-61" transform="translate(670.166016 0)"/>
      <use xlink:href="#DejaVuSans-74" transform="translate(731.445312 0)"/>
      <use xlink:href="#DejaVuSans-69" transform="translate(770.654297 0)"/>
      <use xlink:href="#DejaVuSans-6f" transform="translate(798.4375 0)"/>
      <use xlink:href="#DejaVuSans-6e" transform="translate(859.619141 0)"/>
      <use xlink:href="#DejaVuSans-20" transform="translate(922.998047 0)"/>
      <use xlink:href="#DejaVuSans-68" transform="translate(954.785156 0)"/>
      <use xlink:href="#DejaVuSans-61" transform="translate(1018.164062 0)"/>
      <use xlink:href="#DejaVuSans-72" transform="translate(1079.443359 0)"/>
      <use xlink:href="#DejaVuSans-64" transform="translate(1118.806641 0)"/>
      <use xlink:href="#DejaVuSans-20" transform="translate(1182.283203 0)"/>
      <use xlink:href="#DejaVuSans-63" transform="translate(1214.070312 0)"/>
      <use xlink:href="#DejaVuSans-61" transform="translate(1269.050781 0)"/>
      <use xlink:href="#DejaVuSans-70" transform="translate(1330.330078 0)"/>
      <use xlink:href="#DejaVuSans-3d" transform="translate(1393.806641 0)"/>
      <use xlink:href="#DejaVuSans-34" transform="translate(1477.595703 0)"/>
     </g>
    </g>
   </g>
  </g>
 </g>
 <defs>
  <clipPath id="pe280682c18">
   <rect x="38.27" y="26.88" width="670.93" height="363.16"/>
  </clipPath>
 </defs>
</svg>
